<?xml version="1.0" encoding="utf-8"?>
<!-- Generator: Adobe Illustrator 23.0.1, SVG Export Plug-In . SVG Version: 6.00 Build 0)  -->
<svg version="1.1" id="Ebene_1" xmlns="http://www.w3.org/2000/svg" xmlns:xlink="http://www.w3.org/1999/xlink" x="0px" y="0px"
	 viewBox="0 0 512 512" style="enable-background:new 0 0 512 512;" xml:space="preserve">
<style type="text/css">
	.st0{fill-rule:evenodd;clip-rule:evenodd;fill:#FB4137;}
</style>
<path class="st0" d="M256,512C114.6,512,0,397.4,0,256S114.6,0,256,0s256,114.6,256,256S397.4,512,256,512z M237,128.5
	c-119.4,9.6-87.7,135.7-89.5,178c-1.6,22.3-9,49.7-19.5,77.5h32.3c3.3-11.8,5.8-23.4,6.8-34.5c1.9,1.4,4,2.7,6.2,3.9
	c3.6,2.1,6.7,5,10,8c7.7,7,16.4,14.9,33.4,15.9c1.1,0.1,2.3,0.1,3.4,0.1c17.2,0,29-7.5,38.5-13.6c4.5-2.9,8.5-5.4,12.1-6.6
	c10.5-3.3,19.6-8.6,26.5-15.3c1.1-1.1,2.1-2.1,3-3.2c3.8,14,9,29.7,14.8,45.4H384c-16.5-25.6-33.6-50.6-33.3-82.5
	C351.4,238.3,357.9,118.9,237,128.5z M287.7,290.9c-5.5-2.4-10-4-13.6-5.3c2-4,3.3-8.9,3.4-14.3v0c0.3-13.1-6.3-23.7-14.7-23.8
	c-8.4,0-15.5,10.6-15.8,23.7v0c0,0.4,0,0.9,0,1.3c-5.2-2.4-10.3-4.1-15.3-5.2c0-0.5-0.1-1-0.1-1.5v0c-0.5-23.9,14.1-43.6,32.7-44.1
	c18.5-0.5,34,18.4,34.4,42.3v0c0.2,10.8-2.7,20.7-7.6,28.4C290.1,291.9,288.9,291.4,287.7,290.9z M267.3,298.7c4,1.4,8.6,3,14.7,5.6
	l0.1,0c5.7,2.3,12.5,6.6,12.2,13.7c-0.5,10.9-14.7,21.1-27.9,25.3l-0.1,0c-5.5,1.8-10.4,4.9-15.5,8.2c-8.7,5.6-17.7,11.3-30.6,11.3
	c-0.9,0-1.7,0-2.6-0.1c-11.9-0.7-17.4-5.8-24.5-12.2c-3.7-3.4-7.5-6.9-12.5-9.8l-0.1-0.1c-10.7-6-17.3-13.5-17.7-20
	c-0.2-3.2,1.2-6.1,4.3-8.4c6.7-5,11.1-8.3,14.1-10.4c3.3-2.4,4.3-3.1,5-3.8c0.5-0.5,1.1-1,1.7-1.6c6.1-5.9,16.3-15.9,32-15.9
	c9.6,0,20.2,3.7,31.5,11C256.8,295,261.4,296.6,267.3,298.7z M217.6,320.7c-15.3-1.1-27.5-5.3-32.9-8.9c-3.3-2.3-7.8-1.4-10.1,1.9
	c-2.3,3.3-1.4,7.9,1.9,10.1c8.7,5.9,24,10.2,40,11.4c2.7,0.2,5.7,0.3,8.9,0.3c13.9,0,31.7-1.3,50.6-10.1c3.6-1.7,5.2-6,3.5-9.7
	c-1.7-3.6-6-5.2-9.7-3.5C249.4,321.7,230.4,321.6,217.6,320.7z M196,271.5L196,271.5c-1.1-11.7-7.4-20.6-14-19.7
	c-6.6,0.8-11,10.9-9.8,22.6c0.5,5.1,2,9.7,4,13.1c-0.5,0.4-1.9,1.5-3.6,2.7c-1.3,0.9-2.8,2-4.6,3.4c-5-6.5-8.4-15.9-9-26.5v0
	c-1.2-20.6,8.7-38,22-38.7c13.4-0.8,25.1,15.3,26.3,35.9v0c0.1,1.1,0.1,2.2,0.1,3.3c-4.2,1.1-8,2.6-11.5,4.4
	C196,271.8,196,271.7,196,271.5z"/>
</svg>
